<mxfile host="app.diagrams.net" agent="Mozilla/5.0 (Windows NT 10.0; Win64; x64; rv:136.0) Gecko/20100101 Firefox/136.0" version="26.1.1">
  <diagram name="Page-1" id="XW25_Qr0gox8qkIDQo_x">
    <mxGraphModel dx="2206" dy="1203" grid="1" gridSize="10" guides="1" tooltips="1" connect="1" arrows="1" fold="1" page="1" pageScale="1" pageWidth="850" pageHeight="1100" math="0" shadow="0">
      <root>
        <mxCell id="0" />
        <mxCell id="1" parent="0" />
        <mxCell id="KNZ8NhDfGAsJustiehOf-21" value="OMP Chat-Assistant: Components view" style="text;html=1;align=center;verticalAlign=middle;whiteSpace=wrap;rounded=0;fontSize=17;fontStyle=1" vertex="1" parent="1">
          <mxGeometry width="850" height="30" as="geometry" />
        </mxCell>
        <mxCell id="KNZ8NhDfGAsJustiehOf-22" value="Legend" style="swimlane;whiteSpace=wrap;html=1;" vertex="1" parent="1">
          <mxGeometry x="15" y="660" width="820" height="430" as="geometry" />
        </mxCell>
        <mxCell id="KNZ8NhDfGAsJustiehOf-23" value="Component" style="rounded=0;whiteSpace=wrap;html=1;" vertex="1" parent="KNZ8NhDfGAsJustiehOf-22">
          <mxGeometry x="30" y="50" width="120" height="60" as="geometry" />
        </mxCell>
        <mxCell id="KNZ8NhDfGAsJustiehOf-24" value="Any component that is not developed by the development team" style="text;html=1;align=left;verticalAlign=top;whiteSpace=wrap;rounded=0;" vertex="1" parent="KNZ8NhDfGAsJustiehOf-22">
          <mxGeometry x="170" y="50" width="620" height="60" as="geometry" />
        </mxCell>
        <mxCell id="KNZ8NhDfGAsJustiehOf-25" value="Component" style="rounded=0;whiteSpace=wrap;html=1;fillColor=#d5e8d4;strokeColor=#82b366;" vertex="1" parent="KNZ8NhDfGAsJustiehOf-22">
          <mxGeometry x="30" y="120" width="120" height="60" as="geometry" />
        </mxCell>
        <mxCell id="KNZ8NhDfGAsJustiehOf-26" value="Any component that is developed by the development team" style="text;html=1;align=left;verticalAlign=top;whiteSpace=wrap;rounded=0;" vertex="1" parent="KNZ8NhDfGAsJustiehOf-22">
          <mxGeometry x="170" y="120" width="620" height="60" as="geometry" />
        </mxCell>
        <mxCell id="KNZ8NhDfGAsJustiehOf-28" value="A database" style="text;html=1;align=left;verticalAlign=top;whiteSpace=wrap;rounded=0;" vertex="1" parent="KNZ8NhDfGAsJustiehOf-22">
          <mxGeometry x="170" y="200" width="620" height="60" as="geometry" />
        </mxCell>
        <mxCell id="KNZ8NhDfGAsJustiehOf-29" value="Database" style="shape=cylinder3;whiteSpace=wrap;html=1;boundedLbl=1;backgroundOutline=1;size=15;" vertex="1" parent="KNZ8NhDfGAsJustiehOf-22">
          <mxGeometry x="60" y="190" width="60" height="80" as="geometry" />
        </mxCell>
        <mxCell id="KNZ8NhDfGAsJustiehOf-31" value="Direct usage via function or system call" style="text;html=1;align=left;verticalAlign=top;whiteSpace=wrap;rounded=0;" vertex="1" parent="KNZ8NhDfGAsJustiehOf-22">
          <mxGeometry x="170" y="290" width="620" height="60" as="geometry" />
        </mxCell>
        <mxCell id="KNZ8NhDfGAsJustiehOf-32" value="" style="endArrow=classic;html=1;rounded=0;" edge="1" parent="KNZ8NhDfGAsJustiehOf-22">
          <mxGeometry width="50" height="50" relative="1" as="geometry">
            <mxPoint x="60" y="340" as="sourcePoint" />
            <mxPoint x="110" y="290" as="targetPoint" />
          </mxGeometry>
        </mxCell>
        <mxCell id="KNZ8NhDfGAsJustiehOf-33" value="" style="endArrow=classic;dashed=1;html=1;dashPattern=1 3;strokeWidth=2;rounded=0;endFill=1;startFill=0;" edge="1" parent="KNZ8NhDfGAsJustiehOf-22">
          <mxGeometry width="50" height="50" relative="1" as="geometry">
            <mxPoint x="60" y="410" as="sourcePoint" />
            <mxPoint x="110" y="360" as="targetPoint" />
          </mxGeometry>
        </mxCell>
        <mxCell id="KNZ8NhDfGAsJustiehOf-34" value="API Call via network" style="text;html=1;align=left;verticalAlign=top;whiteSpace=wrap;rounded=0;" vertex="1" parent="KNZ8NhDfGAsJustiehOf-22">
          <mxGeometry x="170" y="360" width="620" height="60" as="geometry" />
        </mxCell>
        <mxCell id="KNZ8NhDfGAsJustiehOf-60" style="edgeStyle=orthogonalEdgeStyle;rounded=0;orthogonalLoop=1;jettySize=auto;html=1;entryX=0.5;entryY=0;entryDx=0;entryDy=0;dashed=1;" edge="1" parent="1" source="KNZ8NhDfGAsJustiehOf-58" target="KNZ8NhDfGAsJustiehOf-59">
          <mxGeometry relative="1" as="geometry" />
        </mxCell>
        <mxCell id="KNZ8NhDfGAsJustiehOf-61" value="API Call" style="edgeLabel;html=1;align=center;verticalAlign=middle;resizable=0;points=[];" vertex="1" connectable="0" parent="KNZ8NhDfGAsJustiehOf-60">
          <mxGeometry x="-0.018" y="1" relative="1" as="geometry">
            <mxPoint as="offset" />
          </mxGeometry>
        </mxCell>
        <mxCell id="KNZ8NhDfGAsJustiehOf-58" value="User-Facing Component" style="rounded=0;whiteSpace=wrap;html=1;" vertex="1" parent="1">
          <mxGeometry x="340" y="50" width="120" height="60" as="geometry" />
        </mxCell>
        <mxCell id="KNZ8NhDfGAsJustiehOf-63" style="edgeStyle=orthogonalEdgeStyle;rounded=0;orthogonalLoop=1;jettySize=auto;html=1;entryX=0.5;entryY=0;entryDx=0;entryDy=0;" edge="1" parent="1" source="KNZ8NhDfGAsJustiehOf-59" target="KNZ8NhDfGAsJustiehOf-62">
          <mxGeometry relative="1" as="geometry" />
        </mxCell>
        <mxCell id="KNZ8NhDfGAsJustiehOf-67" value="Uses" style="edgeLabel;html=1;align=center;verticalAlign=middle;resizable=0;points=[];" vertex="1" connectable="0" parent="KNZ8NhDfGAsJustiehOf-63">
          <mxGeometry x="0.0872" y="-2" relative="1" as="geometry">
            <mxPoint as="offset" />
          </mxGeometry>
        </mxCell>
        <mxCell id="KNZ8NhDfGAsJustiehOf-65" style="edgeStyle=orthogonalEdgeStyle;rounded=0;orthogonalLoop=1;jettySize=auto;html=1;entryX=0.5;entryY=0;entryDx=0;entryDy=0;" edge="1" parent="1" source="KNZ8NhDfGAsJustiehOf-59" target="KNZ8NhDfGAsJustiehOf-64">
          <mxGeometry relative="1" as="geometry" />
        </mxCell>
        <mxCell id="KNZ8NhDfGAsJustiehOf-66" value="Uses" style="edgeLabel;html=1;align=center;verticalAlign=middle;resizable=0;points=[];" vertex="1" connectable="0" parent="KNZ8NhDfGAsJustiehOf-65">
          <mxGeometry x="-0.2224" y="-4" relative="1" as="geometry">
            <mxPoint as="offset" />
          </mxGeometry>
        </mxCell>
        <mxCell id="KNZ8NhDfGAsJustiehOf-59" value="Session Controller" style="rounded=0;whiteSpace=wrap;html=1;fillColor=#d5e8d4;strokeColor=#82b366;" vertex="1" parent="1">
          <mxGeometry x="340" y="180" width="120" height="60" as="geometry" />
        </mxCell>
        <mxCell id="KNZ8NhDfGAsJustiehOf-70" style="edgeStyle=orthogonalEdgeStyle;rounded=0;orthogonalLoop=1;jettySize=auto;html=1;entryX=0.5;entryY=0;entryDx=0;entryDy=0;dashed=1;" edge="1" parent="1" source="KNZ8NhDfGAsJustiehOf-62" target="KNZ8NhDfGAsJustiehOf-68">
          <mxGeometry relative="1" as="geometry" />
        </mxCell>
        <mxCell id="KNZ8NhDfGAsJustiehOf-73" value="API Call" style="edgeLabel;html=1;align=center;verticalAlign=middle;resizable=0;points=[];" vertex="1" connectable="0" parent="KNZ8NhDfGAsJustiehOf-70">
          <mxGeometry x="0.1224" y="3" relative="1" as="geometry">
            <mxPoint as="offset" />
          </mxGeometry>
        </mxCell>
        <mxCell id="KNZ8NhDfGAsJustiehOf-62" value="Context Fetcher" style="rounded=0;whiteSpace=wrap;html=1;fillColor=#d5e8d4;strokeColor=#82b366;" vertex="1" parent="1">
          <mxGeometry x="340" y="310" width="120" height="60" as="geometry" />
        </mxCell>
        <mxCell id="KNZ8NhDfGAsJustiehOf-71" style="edgeStyle=orthogonalEdgeStyle;rounded=0;orthogonalLoop=1;jettySize=auto;html=1;entryX=0.5;entryY=0;entryDx=0;entryDy=0;dashed=1;" edge="1" parent="1" source="KNZ8NhDfGAsJustiehOf-64" target="KNZ8NhDfGAsJustiehOf-69">
          <mxGeometry relative="1" as="geometry" />
        </mxCell>
        <mxCell id="KNZ8NhDfGAsJustiehOf-72" value="API Call" style="edgeLabel;html=1;align=center;verticalAlign=middle;resizable=0;points=[];" vertex="1" connectable="0" parent="KNZ8NhDfGAsJustiehOf-71">
          <mxGeometry x="0.0171" y="-3" relative="1" as="geometry">
            <mxPoint as="offset" />
          </mxGeometry>
        </mxCell>
        <mxCell id="KNZ8NhDfGAsJustiehOf-64" value="LLM Prompter" style="rounded=0;whiteSpace=wrap;html=1;fillColor=#d5e8d4;strokeColor=#82b366;" vertex="1" parent="1">
          <mxGeometry x="530" y="310" width="120" height="60" as="geometry" />
        </mxCell>
        <mxCell id="KNZ8NhDfGAsJustiehOf-77" style="edgeStyle=orthogonalEdgeStyle;rounded=0;orthogonalLoop=1;jettySize=auto;html=1;" edge="1" parent="1" source="KNZ8NhDfGAsJustiehOf-68">
          <mxGeometry relative="1" as="geometry">
            <mxPoint x="260" y="480" as="targetPoint" />
          </mxGeometry>
        </mxCell>
        <mxCell id="KNZ8NhDfGAsJustiehOf-81" value="Uses" style="edgeLabel;html=1;align=center;verticalAlign=middle;resizable=0;points=[];" vertex="1" connectable="0" parent="KNZ8NhDfGAsJustiehOf-77">
          <mxGeometry x="0.0559" relative="1" as="geometry">
            <mxPoint as="offset" />
          </mxGeometry>
        </mxCell>
        <mxCell id="KNZ8NhDfGAsJustiehOf-68" value="Database Handler" style="rounded=0;whiteSpace=wrap;html=1;fillColor=#d5e8d4;strokeColor=#82b366;" vertex="1" parent="1">
          <mxGeometry x="340" y="450" width="120" height="60" as="geometry" />
        </mxCell>
        <mxCell id="KNZ8NhDfGAsJustiehOf-86" style="edgeStyle=orthogonalEdgeStyle;rounded=0;orthogonalLoop=1;jettySize=auto;html=1;entryX=0.5;entryY=0;entryDx=0;entryDy=0;" edge="1" parent="1" source="KNZ8NhDfGAsJustiehOf-69" target="KNZ8NhDfGAsJustiehOf-85">
          <mxGeometry relative="1" as="geometry" />
        </mxCell>
        <mxCell id="KNZ8NhDfGAsJustiehOf-87" value="Uses" style="edgeLabel;html=1;align=center;verticalAlign=middle;resizable=0;points=[];" vertex="1" connectable="0" parent="KNZ8NhDfGAsJustiehOf-86">
          <mxGeometry x="-0.1159" y="-2" relative="1" as="geometry">
            <mxPoint as="offset" />
          </mxGeometry>
        </mxCell>
        <mxCell id="KNZ8NhDfGAsJustiehOf-69" value="LLM Controller" style="rounded=0;whiteSpace=wrap;html=1;fillColor=#d5e8d4;strokeColor=#82b366;" vertex="1" parent="1">
          <mxGeometry x="530" y="450" width="120" height="60" as="geometry" />
        </mxCell>
        <mxCell id="KNZ8NhDfGAsJustiehOf-74" value="Database" style="shape=cylinder3;whiteSpace=wrap;html=1;boundedLbl=1;backgroundOutline=1;size=15;" vertex="1" parent="1">
          <mxGeometry x="370" y="550" width="60" height="80" as="geometry" />
        </mxCell>
        <mxCell id="KNZ8NhDfGAsJustiehOf-75" style="edgeStyle=orthogonalEdgeStyle;rounded=0;orthogonalLoop=1;jettySize=auto;html=1;entryX=0.5;entryY=0;entryDx=0;entryDy=0;entryPerimeter=0;" edge="1" parent="1" source="KNZ8NhDfGAsJustiehOf-68" target="KNZ8NhDfGAsJustiehOf-74">
          <mxGeometry relative="1" as="geometry" />
        </mxCell>
        <mxCell id="KNZ8NhDfGAsJustiehOf-76" value="Queries" style="edgeLabel;html=1;align=center;verticalAlign=middle;resizable=0;points=[];" vertex="1" connectable="0" parent="KNZ8NhDfGAsJustiehOf-75">
          <mxGeometry x="0.0868" relative="1" as="geometry">
            <mxPoint as="offset" />
          </mxGeometry>
        </mxCell>
        <mxCell id="KNZ8NhDfGAsJustiehOf-79" style="edgeStyle=orthogonalEdgeStyle;rounded=0;orthogonalLoop=1;jettySize=auto;html=1;" edge="1" parent="1" source="KNZ8NhDfGAsJustiehOf-78">
          <mxGeometry relative="1" as="geometry">
            <mxPoint x="370" y="600" as="targetPoint" />
            <Array as="points">
              <mxPoint x="200" y="600" />
              <mxPoint x="370" y="600" />
            </Array>
          </mxGeometry>
        </mxCell>
        <mxCell id="KNZ8NhDfGAsJustiehOf-80" value="Queries" style="edgeLabel;html=1;align=center;verticalAlign=middle;resizable=0;points=[];" vertex="1" connectable="0" parent="KNZ8NhDfGAsJustiehOf-79">
          <mxGeometry x="-0.5577" y="3" relative="1" as="geometry">
            <mxPoint as="offset" />
          </mxGeometry>
        </mxCell>
        <mxCell id="KNZ8NhDfGAsJustiehOf-83" style="edgeStyle=orthogonalEdgeStyle;rounded=0;orthogonalLoop=1;jettySize=auto;html=1;entryX=0.5;entryY=1;entryDx=0;entryDy=0;" edge="1" parent="1" source="KNZ8NhDfGAsJustiehOf-78" target="KNZ8NhDfGAsJustiehOf-82">
          <mxGeometry relative="1" as="geometry" />
        </mxCell>
        <mxCell id="KNZ8NhDfGAsJustiehOf-84" value="Uses" style="edgeLabel;html=1;align=center;verticalAlign=middle;resizable=0;points=[];" vertex="1" connectable="0" parent="KNZ8NhDfGAsJustiehOf-83">
          <mxGeometry x="0.0697" y="-2" relative="1" as="geometry">
            <mxPoint as="offset" />
          </mxGeometry>
        </mxCell>
        <mxCell id="KNZ8NhDfGAsJustiehOf-78" value="Embedder" style="rounded=0;whiteSpace=wrap;html=1;fillColor=#d5e8d4;strokeColor=#82b366;" vertex="1" parent="1">
          <mxGeometry x="140" y="450" width="120" height="60" as="geometry" />
        </mxCell>
        <mxCell id="KNZ8NhDfGAsJustiehOf-82" value="Embedder LLM" style="rounded=0;whiteSpace=wrap;html=1;" vertex="1" parent="1">
          <mxGeometry x="140" y="310" width="120" height="60" as="geometry" />
        </mxCell>
        <mxCell id="KNZ8NhDfGAsJustiehOf-85" value="LLM" style="rounded=0;whiteSpace=wrap;html=1;" vertex="1" parent="1">
          <mxGeometry x="530" y="570" width="120" height="60" as="geometry" />
        </mxCell>
      </root>
    </mxGraphModel>
  </diagram>
</mxfile>
